<?xml version="1.0" encoding="utf-8"?>
<!-- Generator: Adobe Illustrator 17.0.1, SVG Export Plug-In . SVG Version: 6.00 Build 0)  -->
<!DOCTYPE svg PUBLIC "-//W3C//DTD SVG 1.1//EN" "http://www.w3.org/Graphics/SVG/1.1/DTD/svg11.dtd">
<svg version="1.1" id="Livello_1" xmlns="http://www.w3.org/2000/svg" xmlns:xlink="http://www.w3.org/1999/xlink" x="0px" y="0px"
	 width="4000px" height="4000px" viewBox="0 0 4000 4000" enable-background="new 0 0 4000 4000" xml:space="preserve">
<linearGradient id="SVGID_1_" gradientUnits="userSpaceOnUse" x1="652.535" y1="3383.8948" x2="3347.4536" y2="688.9763">
	<stop  offset="0" style="stop-color:#009BFF"/>
	<stop  offset="0.25" style="stop-color:#4221E9"/>
	<stop  offset="0.5" style="stop-color:#660FC7"/>
	<stop  offset="0.75" style="stop-color:#FF00FF"/>
	<stop  offset="1" style="stop-color:#FF0000"/>
</linearGradient>
<path fill="url(#SVGID_1_)" d="M3931.36,2000c0,1066.666-864.693,1931.36-1931.36,1931.36S68.64,3066.667,68.64,2000
	c0-372.375,105.377-720.125,287.929-1015.07l412.449,340.106c-0.047,0.07-0.093,0.163-0.139,0.233
	c-1.301,2.369-2.602,4.762-3.88,7.155c-1.603,2.881-3.159,5.785-4.669,8.688c-1.742,3.206-3.438,6.435-5.111,9.664
	c-2.091,3.949-4.135,7.922-6.156,11.917c-4.809,9.362-9.479,18.794-14.032,28.296c-1.231,2.509-2.439,5.018-3.624,7.55
	c-0.348,0.72-0.697,1.44-1.045,2.184c-1.556,3.322-3.136,6.667-4.693,10.013c-2.184,4.693-4.321,9.409-6.435,14.148
	c-1.626,3.578-3.229,7.202-4.809,10.803c-4.112,9.339-8.131,18.724-12.011,28.18c-1.278,3.043-2.532,6.11-3.763,9.176
	c-1.719,4.182-3.392,8.364-5.018,12.568c-1.673,4.205-3.322,8.41-4.925,12.638c-1.626,4.228-3.229,8.456-4.786,12.684
	c-1.719,4.577-3.392,9.153-5.041,13.753c-1.417,3.903-2.811,7.829-4.159,11.778c-1.51,4.275-2.997,8.572-4.437,12.87
	c-1.464,4.298-2.904,8.595-4.298,12.917c-1.44,4.297-2.834,8.642-4.182,12.963c-2.067,6.482-4.089,12.987-6.04,19.515
	c-1.975,6.528-3.88,13.079-5.761,19.63c-0.023,0.023-0.023,0.047-0.023,0.093c-2.509,8.758-4.925,17.586-7.248,26.414
	c-1.185,4.438-2.323,8.851-3.438,13.288c-1.138,4.437-2.23,8.898-3.299,13.358c-2.184,8.897-4.274,17.842-6.249,26.809
	c-0.069,0.233-0.116,0.465-0.162,0.697c-1.951,8.758-3.81,17.54-5.552,26.344c-1.835,9.037-3.578,18.097-5.204,27.204
	c-0.836,4.553-1.649,9.106-2.393,13.66c-0.79,4.577-1.533,9.153-2.277,13.73c-2.207,13.66-4.205,27.39-5.994,41.189
	c-0.023,0.116-0.023,0.209-0.023,0.302c-1.046,8.084-2.044,16.193-2.95,24.323c-2.3,20.304-4.135,40.771-5.529,61.354
	c-0.279,4.112-0.558,8.224-0.79,12.359c-0.302,4.716-0.558,9.432-0.767,14.171c-0.256,4.716-0.465,9.455-0.627,14.194
	c-0.209,4.739-0.372,9.478-0.488,14.241c-0.14,4.763-0.279,9.525-0.349,14.287c-0.046,2.602-0.093,5.181-0.139,7.782
	c-0.07,3.415-0.093,6.807-0.116,10.222c-0.023,3.206-0.023,6.412-0.023,9.618c0,244.092,62.306,473.64,171.889,673.592
	c85.305,155.673,199.278,293.412,334.81,406.107c243.209,202.298,555.879,323.938,896.939,323.938s653.73-121.64,896.939-323.938
	c135.531-112.695,249.504-250.434,334.81-406.107c109.582-199.952,171.889-429.501,171.889-673.592c0-3.252,0-6.482-0.023-9.734
	c-0.023-2.95-0.07-5.901-0.093-8.851c-0.023-0.488-0.023-0.953-0.023-1.44c0-1.394-0.024-2.788-0.047-4.182
	c-0.024-1.068-0.024-2.137-0.07-3.206c-0.813-46.857-3.949-93.134-9.316-138.761c1.542,13.266,2.821,26.602,3.966,39.974
	c-0.719-8.125-1.499-16.223-2.364-24.316c-1.952-18.353-4.275-36.613-6.923-54.756c-0.674-4.53-1.348-9.06-2.068-13.59
	c-0.418-2.649-0.836-5.297-1.277-7.945c-2.486-15.402-5.25-30.735-8.247-45.975c-0.883-4.461-1.765-8.921-2.695-13.358
	c-1.835-8.898-3.764-17.749-5.785-26.6c-0.976-4.274-1.974-8.549-2.973-12.824c-0.046-0.139-0.07-0.279-0.116-0.442
	c-0.883-3.786-1.812-7.55-2.741-11.313c-1.719-7.039-3.508-14.055-5.366-21.048c-0.79-3.02-1.603-6.04-2.416-9.06
	c-1.022-3.787-2.068-7.596-3.136-11.407c-0.674-2.416-1.348-4.832-2.044-7.225c-0.72-2.532-1.441-5.042-2.184-7.55
	c-1.231-4.252-2.486-8.503-3.764-12.731c-0.116-0.372-0.233-0.743-0.348-1.138c-1.231-4.042-2.463-8.084-3.74-12.127
	c-1.348-4.321-2.718-8.619-4.112-12.917c-1.371-4.298-2.788-8.596-4.228-12.87c-1.394-4.159-2.788-8.317-4.228-12.452
	c-1.255-3.67-2.556-7.341-3.857-11.035c-1.092-3.113-2.207-6.226-3.345-9.316c-2.416-6.69-4.902-13.381-7.457-20.048
	c-1.255-3.392-2.556-6.76-3.857-10.106c-0.302-0.767-0.604-1.533-0.906-2.3c-1.301-3.345-2.602-6.667-3.926-9.966
	c-0.418-1.045-0.837-2.067-1.255-3.113c-1.231-3.09-2.486-6.18-3.763-9.269c-0.372-0.883-0.72-1.766-1.115-2.672
	c-1.324-3.229-2.672-6.458-4.02-9.664c-2.23-5.274-4.483-10.524-6.783-15.774c-1.417-3.252-2.834-6.505-4.297-9.734
	c-1.72-3.88-3.462-7.736-5.227-11.592c-0.372-0.813-0.744-1.626-1.116-2.439c-1.37-2.974-2.741-5.947-4.135-8.898
	c-1.603-3.462-3.229-6.923-4.901-10.384c-1.255-2.648-2.532-5.297-3.81-7.922c-0.813-1.673-1.626-3.345-2.439-5.041
	c-1.696-3.438-3.392-6.853-5.111-10.268c-1.184-2.416-2.392-4.809-3.647-7.202c-1.324-2.672-2.672-5.32-4.066-7.969
	c-0.325-0.65-0.674-1.324-1.022-1.998c-1.627-3.16-3.276-6.319-4.948-9.455c-0.558-1.092-1.138-2.184-1.742-3.299
	c-1.371-2.579-2.741-5.158-4.135-7.736c-1.789-3.299-3.578-6.621-5.413-9.92l412.449-340.083
	C3825.983,1279.899,3931.36,1627.648,3931.36,2000z"/>
<linearGradient id="SVGID_2_" gradientUnits="userSpaceOnUse" x1="1162.6403" y1="1782.8634" x2="2837.2676" y2="108.236">
	<stop  offset="0" style="stop-color:#009BFF"/>
	<stop  offset="0.25" style="stop-color:#4221E9"/>
	<stop  offset="0.5" style="stop-color:#660FC7"/>
	<stop  offset="0.75" style="stop-color:#FF00FF"/>
	<stop  offset="1" style="stop-color:#FF0000"/>
</linearGradient>
<path fill="url(#SVGID_2_)" d="M3308.203,579.172l-412.24,339.921c-178.509-148.146-394.352-252.919-631.312-298.128v1673.004
	c-5.97,91.461-82.076,163.804-175.071,163.804c-32.547,0-146.148,0.372-178.974,0.372c-94.064,0-170.843-74.015-175.257-166.964
	V620.965c-236.96,45.208-452.802,149.981-631.312,298.128l-412.24-339.921C1035.853,262.203,1495.323,68.64,2000,68.64
	S2964.147,262.203,3308.203,579.172z"/>
</svg>
