<?xml version="1.0" encoding="utf-8"?>
<!-- Generator: Adobe Illustrator 17.0.1, SVG Export Plug-In . SVG Version: 6.00 Build 0)  -->
<!DOCTYPE svg PUBLIC "-//W3C//DTD SVG 1.1//EN" "http://www.w3.org/Graphics/SVG/1.1/DTD/svg11.dtd">
<svg version="1.1" xmlns="http://www.w3.org/2000/svg" xmlns:xlink="http://www.w3.org/1999/xlink" x="0px" y="0px" width="8000px"
	 height="4000px" viewBox="0 0 8000 4000" enable-background="new 0 0 8000 4000" xml:space="preserve">
<g id="Livello_1">
	<linearGradient id="SVGID_1_" gradientUnits="userSpaceOnUse" x1="1083.4608" y1="1982.6808" x2="2154.6299" y2="911.5117">
		<stop  offset="0" style="stop-color:#009BFF"/>
		<stop  offset="0.25" style="stop-color:#4221E9"/>
		<stop  offset="0.5" style="stop-color:#660FC7"/>
		<stop  offset="0.75" style="stop-color:#FF00FF"/>
		<stop  offset="1" style="stop-color:#FF0000"/>
	</linearGradient>
	<path fill="url(#SVGID_1_)" d="M2386.719,1432.614c0,423.976-343.696,767.672-767.672,767.672s-767.672-343.696-767.672-767.672
		c0-148.011,41.885-286.233,114.445-403.467l163.939,135.185c-0.018,0.028-0.037,0.065-0.055,0.092
		c-0.517,0.942-1.034,1.893-1.542,2.844c-0.637,1.145-1.256,2.299-1.856,3.453c-0.693,1.274-1.367,2.558-2.031,3.841
		c-0.831,1.57-1.644,3.149-2.447,4.737c-1.911,3.721-3.768,7.47-5.577,11.247c-0.489,0.997-0.97,1.995-1.441,3.001
		c-0.138,0.286-0.277,0.573-0.415,0.868c-0.619,1.32-1.247,2.65-1.865,3.98c-0.868,1.865-1.717,3.74-2.558,5.623
		c-0.646,1.422-1.283,2.863-1.911,4.294c-1.634,3.712-3.232,7.442-4.774,11.201c-0.508,1.21-1.006,2.429-1.496,3.647
		c-0.683,1.662-1.348,3.324-1.995,4.996c-0.665,1.671-1.32,3.343-1.958,5.023c-0.646,1.681-1.284,3.361-1.902,5.042
		c-0.683,1.819-1.348,3.638-2.004,5.466c-0.563,1.551-1.117,3.112-1.653,4.682c-0.6,1.699-1.191,3.407-1.764,5.116
		c-0.582,1.708-1.154,3.417-1.708,5.134c-0.573,1.708-1.127,3.435-1.662,5.152c-0.822,2.576-1.625,5.162-2.401,7.757
		c-0.785,2.595-1.542,5.199-2.29,7.803c-0.009,0.009-0.009,0.019-0.009,0.037c-0.997,3.481-1.958,6.99-2.881,10.499
		c-0.471,1.764-0.923,3.518-1.367,5.282c-0.452,1.764-0.886,3.537-1.311,5.31c-0.868,3.536-1.699,7.092-2.484,10.656
		c-0.028,0.092-0.046,0.185-0.065,0.277c-0.776,3.481-1.514,6.972-2.207,10.471c-0.729,3.592-1.422,7.193-2.068,10.813
		c-0.332,1.81-0.656,3.62-0.951,5.429c-0.314,1.819-0.609,3.638-0.905,5.457c-0.877,5.429-1.671,10.887-2.382,16.372
		c-0.009,0.046-0.009,0.083-0.009,0.12c-0.416,3.213-0.813,6.436-1.173,9.668c-0.914,8.07-1.644,16.205-2.198,24.387
		c-0.111,1.634-0.222,3.269-0.314,4.912c-0.12,1.874-0.222,3.749-0.305,5.633c-0.102,1.875-0.185,3.758-0.249,5.642
		c-0.083,1.884-0.148,3.767-0.194,5.66c-0.055,1.893-0.111,3.786-0.139,5.679c-0.018,1.034-0.037,2.059-0.055,3.093
		c-0.028,1.357-0.037,2.706-0.046,4.063c-0.009,1.274-0.009,2.549-0.009,3.823c0,97.021,24.765,188.261,68.322,267.738
		c33.907,61.877,79.209,116.625,133.079,161.418c96.67,80.409,220.949,128.758,356.513,128.758s259.843-48.349,356.513-128.758
		c53.87-44.794,99.172-99.542,133.079-161.418c43.556-79.476,68.322-170.717,68.322-267.738c0-1.293,0-2.576-0.009-3.869
		c-0.009-1.173-0.028-2.345-0.037-3.518c-0.009-0.194-0.009-0.379-0.009-0.573c0-0.554-0.009-1.108-0.018-1.662
		c-0.01-0.425-0.01-0.85-0.028-1.274c-0.323-18.625-1.57-37.019-3.703-55.154c0.613,5.273,1.121,10.574,1.577,15.889
		c-0.286-3.23-0.596-6.448-0.939-9.665c-0.776-7.295-1.699-14.553-2.752-21.764c-0.268-1.801-0.536-3.601-0.822-5.402
		c-0.166-1.053-0.332-2.105-0.508-3.158c-0.988-6.122-2.087-12.217-3.278-18.274c-0.351-1.773-0.702-3.546-1.071-5.309
		c-0.729-3.537-1.496-7.055-2.3-10.573c-0.388-1.699-0.785-3.398-1.182-5.097c-0.019-0.055-0.028-0.111-0.046-0.176
		c-0.351-1.505-0.72-3.001-1.089-4.497c-0.684-2.798-1.395-5.587-2.133-8.366c-0.314-1.2-0.637-2.401-0.96-3.601
		c-0.406-1.505-0.822-3.019-1.247-4.534c-0.268-0.96-0.536-1.921-0.812-2.872c-0.286-1.007-0.573-2.004-0.868-3.001
		c-0.489-1.69-0.988-3.38-1.496-5.06c-0.046-0.148-0.093-0.295-0.138-0.452c-0.49-1.607-0.979-3.213-1.487-4.82
		c-0.536-1.717-1.08-3.426-1.634-5.134c-0.545-1.708-1.108-3.417-1.681-5.116c-0.554-1.653-1.108-3.306-1.68-4.949
		c-0.499-1.459-1.016-2.918-1.533-4.386c-0.434-1.237-0.877-2.475-1.33-3.703c-0.96-2.659-1.948-5.319-2.964-7.969
		c-0.499-1.348-1.016-2.687-1.533-4.017c-0.12-0.305-0.24-0.609-0.36-0.914c-0.517-1.33-1.034-2.65-1.561-3.961
		c-0.166-0.416-0.333-0.822-0.499-1.237c-0.49-1.228-0.988-2.456-1.496-3.684c-0.148-0.351-0.286-0.702-0.443-1.062
		c-0.527-1.283-1.062-2.567-1.598-3.841c-0.886-2.096-1.782-4.183-2.696-6.27c-0.563-1.293-1.127-2.586-1.708-3.869
		c-0.684-1.542-1.376-3.075-2.078-4.608c-0.148-0.323-0.295-0.646-0.443-0.97c-0.545-1.182-1.09-2.364-1.644-3.537
		c-0.637-1.376-1.283-2.752-1.948-4.128c-0.499-1.052-1.007-2.105-1.514-3.149c-0.323-0.665-0.646-1.33-0.969-2.004
		c-0.674-1.367-1.348-2.724-2.031-4.081c-0.471-0.96-0.951-1.911-1.45-2.863c-0.526-1.062-1.062-2.115-1.616-3.167
		c-0.129-0.258-0.268-0.526-0.406-0.794c-0.647-1.256-1.302-2.512-1.967-3.758c-0.222-0.434-0.452-0.868-0.693-1.311
		c-0.545-1.025-1.089-2.05-1.644-3.075c-0.711-1.311-1.422-2.632-2.152-3.943l163.939-135.175
		C2344.834,1146.39,2386.719,1284.613,2386.719,1432.614z"/>
	<linearGradient id="SVGID_2_" gradientUnits="userSpaceOnUse" x1="1286.2161" y1="1346.307" x2="1951.8425" y2="680.6806">
		<stop  offset="0" style="stop-color:#009BFF"/>
		<stop  offset="0.25" style="stop-color:#4221E9"/>
		<stop  offset="0.5" style="stop-color:#660FC7"/>
		<stop  offset="0.75" style="stop-color:#FF00FF"/>
		<stop  offset="1" style="stop-color:#FF0000"/>
	</linearGradient>
	<path fill="url(#SVGID_2_)" d="M2139.029,867.867l-163.856,135.111c-70.953-58.885-156.746-100.53-250.932-118.499v664.981
		c-2.373,36.354-32.623,65.109-69.587,65.109c-12.937,0-58.091,0.148-71.138,0.148c-37.388,0-67.906-29.419-69.661-66.364V884.479
		c-94.186,17.969-179.979,59.614-250.932,118.499l-163.856-135.111c136.755-125.988,319.383-202.925,519.981-202.925
		S2002.274,741.879,2139.029,867.867z"/>
	
		<text transform="matrix(1 0 0 1 3464.3169 1887.7296)" fill="#1D1D1B" stroke="#1D1D1B" stroke-width="18" stroke-miterlimit="10" font-family="'Arial-BoldMT'" font-size="1296">uip</text>
	<path fill="#1D1D1B" stroke="#1D1D1B" stroke-width="18" stroke-miterlimit="10" d="M3513.311,1141.076l-110.17,90.84l-24.36,20.09
		c-58.26-48.34-128.7-82.53-206.03-97.29v718.17c-1.95,29.85-26.79,53.46-57.13,53.46c-10.63,0-47.7,0.12-58.41,0.12
		c-30.7,0-55.76-24.15-57.2-54.49v-717.26c-77.33,14.76-147.77,48.95-206.02,97.29l-24.37-20.09l-110.17-90.84
		c112.28-103.44,262.23-166.61,426.93-166.61S3401.031,1037.636,3513.311,1141.076z"/>
</g>
<g id="Livello_2">
</g>
</svg>
